<svg width="252" height="237" viewBox="0 0 252 237" fill="none" xmlns="http://www.w3.org/2000/svg">
<path d="M196.338 118.047C187.463 118.047 181.019 124.417 181.019 133.197C181.019 141.977 187.46 148.347 196.338 148.347C205.216 148.347 211.657 141.977 211.657 133.197C211.657 124.417 205.216 118.047 196.338 118.047ZM203.384 133.195C203.384 137.506 200.421 140.636 196.338 140.636C192.256 140.636 189.292 137.506 189.292 133.195C189.292 128.883 192.19 125.753 196.338 125.753C200.486 125.753 203.384 128.812 203.384 133.195Z" fill="white"/>
<path d="M85.6321 106.485C76.7566 106.485 70.313 112.856 70.313 121.636C70.313 130.415 76.7541 136.786 85.6321 136.786C94.51 136.786 100.951 130.415 100.951 121.636C100.951 112.856 94.51 106.485 85.6321 106.485ZM92.678 121.633C92.678 125.945 89.7145 129.075 85.6321 129.075C81.5497 129.075 78.5862 125.945 78.5862 121.633C78.5862 117.321 81.4841 114.192 85.6321 114.192C89.78 114.192 92.678 117.251 92.678 121.633Z" fill="white"/>
<path d="M205.811 106.485H186.866V114.192H205.811V106.485Z" fill="white"/>
<path d="M190.003 152.135C189.955 156.391 187.009 159.471 182.96 159.471C180.79 159.471 178.938 158.586 177.678 157.112C176.566 155.812 175.914 154.05 175.914 152.029V139.255H175.934V138.056C175.934 129.278 169.49 122.905 160.615 122.905C156.149 122.905 152.233 124.48 149.431 127.368C146.629 124.478 142.713 122.905 138.247 122.905C135.644 122.905 133.253 123.457 131.169 124.453V121.885H122.928V152.195H131.169V139.253H131.201V138.053C131.201 133.671 134.099 130.612 138.247 130.612C142.395 130.612 145.293 133.671 145.293 138.053V139.253H145.308V152.195H153.549V139.253H153.564V138.053C153.564 133.671 156.462 130.612 160.61 130.612C164.758 130.612 167.537 133.55 167.651 137.791H167.638V152.029C167.638 154.499 168.147 156.777 169.077 158.775C169.284 159.219 169.51 159.649 169.757 160.065C170.004 160.481 170.271 160.882 170.556 161.267C173.27 164.929 177.683 167.177 182.955 167.177H184.154V167.131C192.369 166.587 198.221 160.456 198.271 152.132H189.998L190.003 152.135Z" fill="white"/>
<path d="M58.5195 97.5769C58.5195 94.6411 59.6938 92.3454 61.8282 91.1156C64.0282 89.8456 66.9111 89.8733 69.1765 91.1812C70.4088 91.8943 71.3311 92.9124 71.9107 94.1648L78.6089 89.2937C75.9805 85.0702 71.2807 82.4292 65.5654 82.4292C56.6899 82.4292 50.2463 88.7998 50.2463 97.5794V154.423C50.2463 158.735 47.2828 161.865 43.2004 161.865H42.0009V169.573H43.2004C52.0758 169.573 58.5195 163.203 58.5195 154.423V114.194H67.279V106.467H58.5195V97.5794V97.5769Z" fill="white"/>
<path d="M114.219 108.564V106.485H106.052V136.783H114.219L114.234 120.232C114.234 117.641 116.515 114.192 120.199 114.192H122.865V106.485H120.199C117.689 106.485 115.844 107.483 114.219 108.564Z" fill="white"/>
</svg>
